<svg width="50" height="78" viewBox="0 0 50 78" fill="none" xmlns="http://www.w3.org/2000/svg">
<circle cx="24.7635" cy="24.7635" r="24.7635" fill="#FFB44F"/>
<g clip-path="url(#clip0)">
<path fill-rule="evenodd" clip-rule="evenodd" d="M21.4046 13.641C22.227 12.8347 23.3423 12.3818 24.5054 12.3818C25.6684 12.3818 26.7838 12.8347 27.6062 13.641C28.4286 14.4472 28.8906 15.5408 28.8906 16.681V25.2794C28.8906 26.4196 28.4286 27.5132 27.6062 28.3194C26.7838 29.1257 25.6684 29.5786 24.5054 29.5786C23.3423 29.5786 22.227 29.1257 21.4046 28.3194C20.5822 27.5132 20.1202 26.4196 20.1202 25.2794V16.681C20.1202 15.5408 20.5822 14.4472 21.4046 13.641ZM24.5054 14.5314C23.9239 14.5314 23.3662 14.7579 22.955 15.161C22.5438 15.5641 22.3128 16.1109 22.3128 16.681V25.2794C22.3128 25.8495 22.5438 26.3963 22.955 26.7994C23.3662 27.2025 23.9239 27.429 24.5054 27.429C25.0869 27.429 25.6446 27.2025 26.0558 26.7994C26.467 26.3963 26.698 25.8495 26.698 25.2794V16.681C26.698 16.1109 26.467 15.5641 26.0558 15.161C25.6446 14.7579 25.0869 14.5314 24.5054 14.5314Z" fill="white"/>
<path fill-rule="evenodd" clip-rule="evenodd" d="M16.8313 22.055C17.4368 22.055 17.9276 22.5362 17.9276 23.1298V25.2794C17.9276 26.9897 18.6207 28.63 19.8542 29.8394C21.0878 31.0488 22.7609 31.7282 24.5054 31.7282C26.25 31.7282 27.9231 31.0488 29.1566 29.8394C30.3902 28.63 31.0832 26.9897 31.0832 25.2794V23.1298C31.0832 22.5362 31.5741 22.055 32.1795 22.055C32.785 22.055 33.2758 22.5362 33.2758 23.1298V25.2794C33.2758 27.5598 32.3518 29.7469 30.707 31.3594C29.0623 32.9719 26.8315 33.8778 24.5054 33.8778C22.1794 33.8778 19.9486 32.9719 18.3038 31.3594C16.6591 29.7469 15.735 27.5598 15.735 25.2794V23.1298C15.735 22.5362 16.2259 22.055 16.8313 22.055Z" fill="white"/>
<path fill-rule="evenodd" clip-rule="evenodd" d="M24.5054 31.7282C25.1108 31.7282 25.6017 32.2094 25.6017 32.803V37.1022C25.6017 37.6958 25.1108 38.177 24.5054 38.177C23.8999 38.177 23.4091 37.6958 23.4091 37.1022V32.803C23.4091 32.2094 23.8999 31.7282 24.5054 31.7282Z" fill="white"/>
<path fill-rule="evenodd" clip-rule="evenodd" d="M19.0239 37.1023C19.0239 36.5087 19.5147 36.0275 20.1202 36.0275H28.8906C29.496 36.0275 29.9869 36.5087 29.9869 37.1023C29.9869 37.6959 29.496 38.1771 28.8906 38.1771H20.1202C19.5147 38.1771 19.0239 37.6959 19.0239 37.1023Z" fill="white"/>
</g>
<path d="M12.5127 71.5308C12.5127 72.3475 12.2165 72.9844 11.624 73.4414C11.0316 73.8984 10.2275 74.127 9.21191 74.127C8.11165 74.127 7.2653 73.9852 6.67285 73.7017V72.6606C7.05371 72.8215 7.46842 72.9484 7.91699 73.0415C8.36556 73.1346 8.8099 73.1812 9.25 73.1812C9.9694 73.1812 10.5111 73.0457 10.875 72.7749C11.2389 72.4998 11.4209 72.119 11.4209 71.6323C11.4209 71.3107 11.3553 71.0483 11.2241 70.8452C11.0972 70.6379 10.8813 70.4474 10.5767 70.2739C10.2762 70.1004 9.81706 69.9036 9.19922 69.6836C8.33594 69.3747 7.7181 69.0086 7.3457 68.5854C6.97754 68.1623 6.79346 67.61 6.79346 66.9287C6.79346 66.2135 7.06217 65.6444 7.59961 65.2212C8.13704 64.798 8.84798 64.5864 9.73242 64.5864C10.6549 64.5864 11.5034 64.7557 12.2778 65.0942L11.9414 66.0337C11.1755 65.7121 10.4307 65.5513 9.70703 65.5513C9.13574 65.5513 8.68929 65.674 8.36768 65.9194C8.04606 66.1649 7.88525 66.5055 7.88525 66.9414C7.88525 67.263 7.9445 67.5275 8.06299 67.7349C8.18148 67.938 8.38037 68.1263 8.65967 68.2998C8.9432 68.4691 9.37484 68.6574 9.95459 68.8647C10.9279 69.2118 11.5965 69.5841 11.9604 69.9819C12.3286 70.3797 12.5127 70.896 12.5127 71.5308ZM17.4893 74.127C17.0365 74.127 16.6217 74.0444 16.2451 73.8794C15.8727 73.7101 15.5596 73.452 15.3057 73.105H15.2295C15.2803 73.5112 15.3057 73.8963 15.3057 74.2603V77.123H14.252V67.043H15.1089L15.2549 67.9951H15.3057C15.5765 67.6143 15.8918 67.3392 16.2515 67.1699C16.6112 67.0007 17.0238 66.916 17.4893 66.916C18.4118 66.916 19.1227 67.2313 19.6221 67.8618C20.1257 68.4924 20.3774 69.3768 20.3774 70.5151C20.3774 71.6577 20.1214 72.5464 19.6094 73.1812C19.1016 73.8117 18.3949 74.127 17.4893 74.127ZM17.3369 67.811C16.626 67.811 16.1118 68.0078 15.7944 68.4014C15.4771 68.7949 15.3141 69.4212 15.3057 70.2803V70.5151C15.3057 71.4927 15.4686 72.193 15.7944 72.6162C16.1203 73.0352 16.6429 73.2446 17.3623 73.2446C17.9632 73.2446 18.4329 73.0013 18.7715 72.5146C19.1143 72.028 19.2856 71.3573 19.2856 70.5024C19.2856 69.6349 19.1143 68.9705 18.7715 68.5093C18.4329 68.0438 17.9548 67.811 17.3369 67.811ZM25.1636 74.127C24.1353 74.127 23.3228 73.8138 22.7261 73.1875C22.1336 72.5612 21.8374 71.6916 21.8374 70.5786C21.8374 69.4572 22.1125 68.5664 22.6626 67.9062C23.217 67.2461 23.9596 66.916 24.8906 66.916C25.7624 66.916 26.4521 67.2038 26.96 67.7793C27.4678 68.3506 27.7217 69.106 27.7217 70.0454V70.7119H22.9292C22.9504 71.5286 23.1556 72.1486 23.5449 72.5718C23.9385 72.995 24.4907 73.2065 25.2017 73.2065C25.9507 73.2065 26.6912 73.05 27.4233 72.7368V73.6763C27.0509 73.8371 26.6976 73.9513 26.3633 74.019C26.0332 74.091 25.6333 74.127 25.1636 74.127ZM24.8779 67.7983C24.3193 67.7983 23.8729 67.9803 23.5386 68.3442C23.2085 68.7082 23.0138 69.2118 22.9546 69.855H26.5918C26.5918 69.1906 26.4437 68.6828 26.1475 68.3315C25.8512 67.9761 25.4281 67.7983 24.8779 67.7983ZM33.8027 74L33.5933 73.0098H33.5425C33.1955 73.4456 32.8485 73.7419 32.5015 73.8984C32.1587 74.0508 31.7292 74.127 31.2129 74.127C30.5231 74.127 29.9814 73.9492 29.5879 73.5938C29.1986 73.2383 29.0039 72.7326 29.0039 72.0767C29.0039 70.6717 30.1274 69.9354 32.3745 69.8677L33.5552 69.8296V69.3979C33.5552 68.8521 33.4367 68.45 33.1997 68.1919C32.967 67.9295 32.5924 67.7983 32.0762 67.7983C31.4964 67.7983 30.8405 67.9761 30.1084 68.3315L29.7847 67.5254C30.1274 67.3392 30.502 67.1932 30.9082 67.0874C31.3187 66.9816 31.7292 66.9287 32.1396 66.9287C32.9691 66.9287 33.5827 67.1128 33.9805 67.481C34.3825 67.8491 34.5835 68.4395 34.5835 69.252V74H33.8027ZM31.4224 73.2573C32.0783 73.2573 32.5924 73.0775 32.9648 72.7178C33.3415 72.3581 33.5298 71.8545 33.5298 71.207V70.5786L32.4761 70.623C31.6382 70.6527 31.033 70.7839 30.6606 71.0166C30.2925 71.2451 30.1084 71.6027 30.1084 72.0894C30.1084 72.4702 30.2227 72.7601 30.4512 72.959C30.6839 73.1579 31.0076 73.2573 31.4224 73.2573ZM37.8018 70.439C37.9837 70.1808 38.2609 69.8423 38.6333 69.4233L40.8804 67.043H42.1309L39.3125 70.0073L42.3276 74H41.0518L38.5952 70.7119L37.8018 71.3975V74H36.7607V64.123H37.8018V69.3599C37.8018 69.5926 37.7848 69.9523 37.751 70.439H37.8018Z" fill="white"/>
<defs>
<clipPath id="clip0">
<rect width="26.3112" height="25.7953" fill="white" transform="translate(11.3498 12.3818)"/>
</clipPath>
</defs>
</svg>
