<svg width="50" height="78" viewBox="0 0 50 78" fill="none" xmlns="http://www.w3.org/2000/svg">
<circle cx="24.7635" cy="24.7635" r="24.7635" fill="#FFB44F"/>
<rect x="20.2356" y="14.9893" width="2.99787" height="19.4861" rx="1.49893" fill="#FFDAA7"/>
<rect x="26.9807" y="14.9893" width="2.99787" height="19.4861" rx="1.49893" fill="#FFDAA7"/>
<path d="M13.1602 67.4238C13.1602 68.3633 12.8385 69.0869 12.1953 69.5947C11.5563 70.0983 10.6401 70.3501 9.44678 70.3501H8.35498V74H7.27588V64.7197H9.68164C12.0007 64.7197 13.1602 65.6211 13.1602 67.4238ZM8.35498 69.4233H9.32617C10.2826 69.4233 10.9744 69.2689 11.4019 68.96C11.8293 68.651 12.043 68.1559 12.043 67.4746C12.043 66.861 11.842 66.404 11.4399 66.1035C11.0379 65.8031 10.4116 65.6528 9.56104 65.6528H8.35498V69.4233ZM19.2285 74L19.019 73.0098H18.9683C18.6213 73.4456 18.2743 73.7419 17.9272 73.8984C17.5845 74.0508 17.1549 74.127 16.6387 74.127C15.9489 74.127 15.4072 73.9492 15.0137 73.5938C14.6243 73.2383 14.4297 72.7326 14.4297 72.0767C14.4297 70.6717 15.5532 69.9354 17.8003 69.8677L18.981 69.8296V69.3979C18.981 68.8521 18.8625 68.45 18.6255 68.1919C18.3927 67.9295 18.0182 67.7983 17.502 67.7983C16.9222 67.7983 16.2663 67.9761 15.5342 68.3315L15.2104 67.5254C15.5532 67.3392 15.9277 67.1932 16.334 67.0874C16.7445 66.9816 17.1549 66.9287 17.5654 66.9287C18.3949 66.9287 19.0085 67.1128 19.4062 67.481C19.8083 67.8491 20.0093 68.4395 20.0093 69.252V74H19.2285ZM16.8481 73.2573C17.5041 73.2573 18.0182 73.0775 18.3906 72.7178C18.7673 72.3581 18.9556 71.8545 18.9556 71.207V70.5786L17.9019 70.623C17.064 70.6527 16.4588 70.7839 16.0864 71.0166C15.7183 71.2451 15.5342 71.6027 15.5342 72.0894C15.5342 72.4702 15.6484 72.7601 15.877 72.959C16.1097 73.1579 16.4334 73.2573 16.8481 73.2573ZM23.1768 67.043V71.5562C23.1768 72.1232 23.3058 72.5464 23.564 72.8257C23.8221 73.105 24.2262 73.2446 24.7764 73.2446C25.5042 73.2446 26.0353 73.0457 26.3696 72.6479C26.7082 72.2502 26.8774 71.6006 26.8774 70.6992V67.043H27.9312V74H27.0615L26.9092 73.0669H26.8521C26.6362 73.4097 26.3358 73.672 25.9507 73.854C25.5698 74.036 25.134 74.127 24.6431 74.127C23.7967 74.127 23.1619 73.9259 22.7388 73.5239C22.3198 73.1219 22.1104 72.4787 22.1104 71.5942V67.043H23.1768ZM34.6597 72.1021C34.6597 72.7495 34.4185 73.2489 33.936 73.6001C33.4536 73.9513 32.7765 74.127 31.9048 74.127C30.9823 74.127 30.2629 73.981 29.7466 73.689V72.7114C30.0809 72.8807 30.4385 73.014 30.8193 73.1113C31.2044 73.2087 31.5747 73.2573 31.9302 73.2573C32.4803 73.2573 32.9035 73.1706 33.1997 72.9971C33.4959 72.8193 33.644 72.5506 33.644 72.1909C33.644 71.9201 33.5256 71.6895 33.2886 71.499C33.0558 71.3044 32.5988 71.0758 31.9175 70.8135C31.27 70.5723 30.8088 70.3628 30.5337 70.1851C30.2629 70.0031 30.0597 69.7979 29.9243 69.5693C29.7931 69.3408 29.7275 69.0679 29.7275 68.7505C29.7275 68.1834 29.9582 67.737 30.4194 67.4111C30.8807 67.0811 31.5133 66.916 32.3174 66.916C33.0664 66.916 33.7985 67.0684 34.5137 67.373L34.1392 68.23C33.4409 67.9422 32.8083 67.7983 32.2412 67.7983C31.7419 67.7983 31.3652 67.8766 31.1113 68.0332C30.8574 68.1898 30.7305 68.4056 30.7305 68.6807C30.7305 68.8669 30.777 69.0256 30.8701 69.1567C30.9674 69.2879 31.1219 69.4128 31.3335 69.5312C31.5451 69.6497 31.9513 69.8211 32.5522 70.0454C33.3774 70.3459 33.9339 70.6484 34.2217 70.9531C34.5137 71.2578 34.6597 71.6408 34.6597 72.1021ZM39.3188 74.127C38.2905 74.127 37.478 73.8138 36.8813 73.1875C36.2889 72.5612 35.9927 71.6916 35.9927 70.5786C35.9927 69.4572 36.2677 68.5664 36.8179 67.9062C37.3722 67.2461 38.1149 66.916 39.0459 66.916C39.9176 66.916 40.6074 67.2038 41.1152 67.7793C41.623 68.3506 41.877 69.106 41.877 70.0454V70.7119H37.0845C37.1056 71.5286 37.3109 72.1486 37.7002 72.5718C38.0938 72.995 38.646 73.2065 39.3569 73.2065C40.106 73.2065 40.8465 73.05 41.5786 72.7368V73.6763C41.2062 73.8371 40.8529 73.9513 40.5186 74.019C40.1885 74.091 39.7886 74.127 39.3188 74.127ZM39.0332 67.7983C38.4746 67.7983 38.0282 67.9803 37.6938 68.3442C37.3638 68.7082 37.1691 69.2118 37.1099 69.855H40.7471C40.7471 69.1906 40.599 68.6828 40.3027 68.3315C40.0065 67.9761 39.5833 67.7983 39.0332 67.7983Z" fill="white"/>
</svg>
