<svg width="50" height="78" viewBox="0 0 50 78" fill="none" xmlns="http://www.w3.org/2000/svg">
<circle cx="24.7635" cy="24.7635" r="24.7635" fill="#FFB44F"/>
<path fill-rule="evenodd" clip-rule="evenodd" d="M34.6095 25.99C35.1302 25.4432 35.1302 24.5568 34.6095 24.0101L29.2761 18.4101C28.7554 17.8633 27.9112 17.8633 27.3905 18.4101C26.8698 18.9568 26.8698 19.8432 27.3905 20.3899L31.781 25L27.3905 29.6101C26.8698 30.1568 26.8698 31.0432 27.3905 31.5899C27.9112 32.1367 28.7554 32.1367 29.2761 31.5899L34.6095 25.99Z" fill="#FFDAA7"/>
<path fill-rule="evenodd" clip-rule="evenodd" d="M35 25C35 24.2268 34.403 23.6 33.6667 23.6H16.3333C15.597 23.6 15 24.2268 15 25C15 25.7732 15.597 26.4 16.3333 26.4H33.6667C34.403 26.4 35 25.7732 35 25Z" fill="#FFDAA7"/>
<path d="M17.9209 71.5308C17.9209 72.3475 17.6247 72.9844 17.0322 73.4414C16.4398 73.8984 15.6357 74.127 14.6201 74.127C13.5199 74.127 12.6735 73.9852 12.0811 73.7017V72.6606C12.4619 72.8215 12.8766 72.9484 13.3252 73.0415C13.7738 73.1346 14.2181 73.1812 14.6582 73.1812C15.3776 73.1812 15.9193 73.0457 16.2832 72.7749C16.6471 72.4998 16.8291 72.119 16.8291 71.6323C16.8291 71.3107 16.7635 71.0483 16.6323 70.8452C16.5054 70.6379 16.2896 70.4474 15.9849 70.2739C15.6844 70.1004 15.2253 69.9036 14.6074 69.6836C13.7441 69.3747 13.1263 69.0086 12.7539 68.5854C12.3857 68.1623 12.2017 67.61 12.2017 66.9287C12.2017 66.2135 12.4704 65.6444 13.0078 65.2212C13.5452 64.798 14.2562 64.5864 15.1406 64.5864C16.0632 64.5864 16.9116 64.7557 17.686 65.0942L17.3496 66.0337C16.5837 65.7121 15.8389 65.5513 15.1152 65.5513C14.5439 65.5513 14.0975 65.674 13.7759 65.9194C13.4543 66.1649 13.2935 66.5055 13.2935 66.9414C13.2935 67.263 13.3527 67.5275 13.4712 67.7349C13.5897 67.938 13.7886 68.1263 14.0679 68.2998C14.3514 68.4691 14.783 68.6574 15.3628 68.8647C16.3361 69.2118 17.0047 69.5841 17.3687 69.9819C17.7368 70.3797 17.9209 70.896 17.9209 71.5308ZM23.9385 74L23.729 73.0098H23.6782C23.3312 73.4456 22.9842 73.7419 22.6372 73.8984C22.2944 74.0508 21.8649 74.127 21.3486 74.127C20.6589 74.127 20.1172 73.9492 19.7236 73.5938C19.3343 73.2383 19.1396 72.7326 19.1396 72.0767C19.1396 70.6717 20.2632 69.9354 22.5103 69.8677L23.6909 69.8296V69.3979C23.6909 68.8521 23.5724 68.45 23.3354 68.1919C23.1027 67.9295 22.7282 67.7983 22.2119 67.7983C21.6322 67.7983 20.9762 67.9761 20.2441 68.3315L19.9204 67.5254C20.2632 67.3392 20.6377 67.1932 21.0439 67.0874C21.4544 66.9816 21.8649 66.9287 22.2754 66.9287C23.1048 66.9287 23.7184 67.1128 24.1162 67.481C24.5182 67.8491 24.7192 68.4395 24.7192 69.252V74H23.9385ZM21.5581 73.2573C22.214 73.2573 22.7282 73.0775 23.1006 72.7178C23.4772 72.3581 23.6655 71.8545 23.6655 71.207V70.5786L22.6118 70.623C21.7739 70.6527 21.1688 70.7839 20.7964 71.0166C20.4282 71.2451 20.2441 71.6027 20.2441 72.0894C20.2441 72.4702 20.3584 72.7601 20.5869 72.959C20.8197 73.1579 21.1434 73.2573 21.5581 73.2573ZM28.4199 74L25.7793 67.043H26.9092L28.4072 71.1689C28.7458 72.1338 28.9447 72.7601 29.0039 73.0479H29.0547C29.1012 72.8236 29.2472 72.3602 29.4927 71.6577C29.7424 70.951 30.2988 69.4128 31.1621 67.043H32.292L29.6514 74H28.4199ZM36.3481 74.127C35.3198 74.127 34.5073 73.8138 33.9106 73.1875C33.3182 72.5612 33.022 71.6916 33.022 70.5786C33.022 69.4572 33.297 68.5664 33.8472 67.9062C34.4015 67.2461 35.1442 66.916 36.0752 66.916C36.9469 66.916 37.6367 67.2038 38.1445 67.7793C38.6523 68.3506 38.9062 69.106 38.9062 70.0454V70.7119H34.1138C34.1349 71.5286 34.3402 72.1486 34.7295 72.5718C35.123 72.995 35.6753 73.2065 36.3862 73.2065C37.1353 73.2065 37.8758 73.05 38.6079 72.7368V73.6763C38.2355 73.8371 37.8822 73.9513 37.5479 74.019C37.2178 74.091 36.8179 74.127 36.3481 74.127ZM36.0625 67.7983C35.5039 67.7983 35.0575 67.9803 34.7231 68.3442C34.3931 68.7082 34.1984 69.2118 34.1392 69.855H37.7764C37.7764 69.1906 37.6283 68.6828 37.332 68.3315C37.0358 67.9761 36.6126 67.7983 36.0625 67.7983Z" fill="white"/>
</svg>
